<mxfile host="app.diagrams.net" modified="2023-01-19T11:21:35.407Z" agent="5.0 (Windows NT 10.0; Win64; x64) AppleWebKit/537.36 (KHTML, like Gecko) Chrome/109.0.0.0 Safari/537.36" version="20.8.5" etag="kXKifPtLX27gJ6uW2KzX" type="github">
  <diagram id="iOZphBAMzZE5e629XJiL" name="第 1 页">
    <mxGraphModel dx="1050" dy="549" grid="1" gridSize="10" guides="1" tooltips="1" connect="1" arrows="1" fold="1" page="1" pageScale="1" pageWidth="827" pageHeight="1169" math="0" shadow="0">
      <root>
        <mxCell id="0" />
        <mxCell id="1" parent="0" />
        <mxCell id="GBi2ii8lsFSu6CF-uhqW-6" style="edgeStyle=orthogonalEdgeStyle;rounded=0;orthogonalLoop=1;jettySize=auto;html=1;entryX=0.5;entryY=0;entryDx=0;entryDy=0;fontSize=18;" edge="1" parent="1" source="GBi2ii8lsFSu6CF-uhqW-2" target="GBi2ii8lsFSu6CF-uhqW-3">
          <mxGeometry relative="1" as="geometry" />
        </mxCell>
        <mxCell id="GBi2ii8lsFSu6CF-uhqW-2" value="&lt;font style=&quot;font-size: 24px;&quot;&gt;创建集群&lt;/font&gt;" style="rounded=1;whiteSpace=wrap;html=1;strokeWidth=2;fillWeight=4;hachureGap=8;hachureAngle=45;fillColor=#dae8fc;sketch=1;strokeColor=#6c8ebf;" vertex="1" parent="1">
          <mxGeometry x="210" y="120" width="160" height="70" as="geometry" />
        </mxCell>
        <mxCell id="GBi2ii8lsFSu6CF-uhqW-7" value="" style="edgeStyle=orthogonalEdgeStyle;rounded=0;orthogonalLoop=1;jettySize=auto;html=1;fontSize=18;" edge="1" parent="1" source="GBi2ii8lsFSu6CF-uhqW-3" target="GBi2ii8lsFSu6CF-uhqW-4">
          <mxGeometry relative="1" as="geometry" />
        </mxCell>
        <mxCell id="GBi2ii8lsFSu6CF-uhqW-3" value="&lt;font style=&quot;font-size: 24px;&quot;&gt;新增Topic&lt;/font&gt;" style="rounded=1;whiteSpace=wrap;html=1;strokeWidth=2;fillWeight=4;hachureGap=8;hachureAngle=45;fillColor=#dae8fc;sketch=1;strokeColor=#6c8ebf;" vertex="1" parent="1">
          <mxGeometry x="210" y="240" width="160" height="70" as="geometry" />
        </mxCell>
        <mxCell id="GBi2ii8lsFSu6CF-uhqW-8" value="" style="edgeStyle=orthogonalEdgeStyle;rounded=0;orthogonalLoop=1;jettySize=auto;html=1;fontSize=18;" edge="1" parent="1" source="GBi2ii8lsFSu6CF-uhqW-4" target="GBi2ii8lsFSu6CF-uhqW-5">
          <mxGeometry relative="1" as="geometry" />
        </mxCell>
        <mxCell id="GBi2ii8lsFSu6CF-uhqW-4" value="&lt;font style=&quot;font-size: 18px;&quot;&gt;编写生产者逻辑&lt;/font&gt;" style="rounded=1;whiteSpace=wrap;html=1;strokeWidth=2;fillWeight=4;hachureGap=8;hachureAngle=45;fillColor=#dae8fc;sketch=1;strokeColor=#6c8ebf;" vertex="1" parent="1">
          <mxGeometry x="210" y="370" width="160" height="70" as="geometry" />
        </mxCell>
        <mxCell id="GBi2ii8lsFSu6CF-uhqW-5" value="&lt;font style=&quot;font-size: 18px;&quot;&gt;编写消费者逻辑&lt;/font&gt;" style="rounded=1;whiteSpace=wrap;html=1;strokeWidth=2;fillWeight=4;hachureGap=8;hachureAngle=45;fillColor=#dae8fc;sketch=1;strokeColor=#6c8ebf;" vertex="1" parent="1">
          <mxGeometry x="210" y="500" width="160" height="70" as="geometry" />
        </mxCell>
      </root>
    </mxGraphModel>
  </diagram>
</mxfile>
